<?xml version="1.0" encoding="UTF-8"?>
<svg id="Layer_1" xmlns="http://www.w3.org/2000/svg" version="1.1" viewBox="0 0 2560 529.08">
  <!-- Generator: Adobe Illustrator 30.3.0, SVG Export Plug-In . SVG Version: 2.1.3 Build 157)  -->
  <defs>
    <style>
      .st0 {
        fill: #fff;
        font-family: HelveticaNeue-Thin, 'Helvetica Neue';
        font-size: 178px;
        font-weight: 200;
      }

      .st1 {
        fill: #ed686a;
      }

      .st2 {
        fill: #2eb3a4;
      }

      .st3 {
        fill: #258037;
      }

      .st4 {
        letter-spacing: .58em;
      }

      .st5 {
        fill: #42afe4;
      }

      .st6 {
        fill: #178039;
      }

      .st7 {
        fill: #004a73;
      }

      .st8 {
        fill: #d73316;
      }

      .st9 {
        fill: #248336;
      }

      .st10 {
        fill: #2e9586;
      }

      .st11 {
        fill: #fdc424;
      }
    </style>
  </defs>
  <path class="st1" d="M162.34,103.9v350.23l47.17-10.35v-178.98c-.3-14.68,14-30.21,31.96-34.69,17.96-4.48,32.77,3.8,33.09,18.48v180.92l47.4-10.4V68.88l-159.62,35.02Z"/>
  <g>
    <polygon class="st5" points="1030.77 89.03 1125.89 311.82 1217.57 273.08 1198.16 226.53 1321.25 245.29 1224.56 19.69 1134.19 55.49 1147.79 100.88 1030.77 89.03"/>
    <polygon class="st1" points="975.36 65.89 885.08 65.89 758.47 65.89 668.19 65.89 777.35 310.08 822.2 208.43 867.64 310.08 975.36 65.89"/>
    <polygon class="st2" points="893.9 310.08 1001.63 65.89 1110.79 310.08 893.9 310.08"/>
    <path class="st11" d="M1329.53,310.08c64.26,0,116.35-52.09,116.35-116.35s-52.09-116.35-116.35-116.35h-63.34v232.69h63.34Z"/>
    <polygon class="st1" points="1424.9 78.1 1598.7 78.1 1598.7 159.98 1511.8 159.98 1511.8 172.9 1574.28 180.09 1574.28 221.74 1511.8 221.74 1511.8 237.54 1598.7 247.59 1598.7 309.36 1424.9 309.36 1424.9 78.1"/>
    <polygon class="st6" points="1266.19 236.9 1321.25 245.29 1266.19 116.82 1266.19 236.9"/>
    <path class="st2" d="M1611.98,77.28v232.9h160.87l-42.77-63.2-2.65-3.81c34.79-10.56,60.11-42.88,60.11-81.11,0-46.82-37.95-84.77-84.77-84.77h-90.78Z"/>
    <polygon class="st11" points="1755 78.1 1755 309.36 1935.98 309.36 1935.98 252.18 1854.11 246.16 1854.11 78.1 1755 78.1"/>
    <g>
      <path class="st9" d="M1755,228.79c19.8-15.51,32.53-39.63,32.53-66.74s-12.74-51.22-32.53-66.73v133.47Z"/>
      <polygon class="st9" points="1755 283.81 1755 309.36 1772.29 309.36 1755 283.81"/>
    </g>
    <polygon class="st5" points="1905.3 309.36 2013.03 65.18 2122.2 309.36 1905.3 309.36"/>
    <polygon class="st3" points="1930.7 251.79 1905.3 309.36 1935.98 309.36 1935.98 252.18 1930.7 251.79"/>
    <polygon class="st1" points="2042.18 89.03 2137.3 311.82 2228.97 273.08 2209.57 226.53 2332.66 245.29 2235.97 19.69 2145.6 55.49 2159.19 100.88 2042.18 89.03"/>
    <path class="st2" d="M2340.94,310.08c64.26,0,116.35-52.09,116.35-116.35s-52.09-116.35-116.35-116.35h-63.34v232.69h63.34Z"/>
    <polygon class="st7" points="2277.6 236.9 2332.66 245.29 2277.6 116.82 2277.6 236.9"/>
    <path class="st8" d="M1424.9,260.38c13.22-18.88,20.98-41.85,20.98-66.65s-7.76-47.77-20.98-66.65v133.29Z"/>
    <g>
      <path class="st10" d="M2447.94,56.29h38.06v10.01h-12.77v30.52h-12.52v-30.52h-12.77v-10.01Z"/>
      <path class="st10" d="M2491.53,56.29h16.47l6.35,24.66,6.31-24.66h16.46v40.52h-10.25v-30.9l-7.9,30.9h-9.28l-7.89-30.9v30.9h-10.25v-40.52Z"/>
    </g>
  </g>
  <text class="st0" transform="translate(684.56 484.74)"><tspan class="st4" x="0" y="0">SCREENER</tspan><tspan x="1707.17" y="0">Y</tspan></text>
  <polygon class="st2" points="182.42 488.48 22.79 453.46 22.79 103.23 182.42 138.25 182.42 488.48"/>
  <polygon class="st11" points="460.61 481.94 300.99 446.92 300.99 96.69 460.61 131.72 460.61 481.94"/>
  <polygon class="st7" points="162.33 454.13 182.42 449.73 182.42 138.25 162.33 133.84 162.33 454.13"/>
  <path class="st5" d="M440.46,111.79v350.23l159.62-35.02V76.77l-159.62,35.02ZM559.88,237.64l-66.61,17.51v-58.39c-.31-15.04,14.34-30.94,32.73-35.52,18.39-4.58,33.56,3.89,33.88,18.93v57.48Z"/>
  <polygon class="st9" points="440.46 462.02 460.61 457.6 460.61 131.72 440.46 127.29 440.46 462.02"/>
  <polygon class="st8" points="321.96 419.11 321.96 101.3 300.99 96.69 300.99 423.71 321.96 419.11"/>
</svg>