<?xml version="1.0" encoding="UTF-8"?>
<svg id="Layer_1" xmlns="http://www.w3.org/2000/svg" version="1.1" viewBox="0 0 2560 645">
  <!-- Generator: Adobe Illustrator 30.3.0, SVG Export Plug-In . SVG Version: 2.1.3 Build 157)  -->
  <defs>
    <style>
      .st0 {
        fill: #258737;
      }

      .st1 {
        fill: #2eb3a4;
      }

      .st2 {
        fill: #42afe4;
      }

      .st3 {
        fill: #fff;
      }

      .st4 {
        fill: #004a73;
      }

      .st5 {
        fill: #d73316;
      }

      .st6 {
        fill: #248336;
      }

      .st7 {
        fill: #179039;
      }

      .st8 {
        fill: #ec686a;
      }

      .st9 {
        fill: #fdc424;
      }
    </style>
  </defs>
  <g>
    <path class="st3" d="M244.83,536.01c0,16.35-8.17,33.16-22,41.96-5.66,3.46-12.26,6.29-19.33,6.29-14.93,0-21.06-11.94-21.06-24.52,0-21.69,11.63-37.25,25.3-44.01,5.03-2.52,11.47-4.24,16.19-4.24,13.2,0,20.9,8.64,20.9,24.52ZM195.8,558.01c0,11.79,4.4,19.65,13.04,19.65,14.93,0,22.79-24.05,22.79-41.02,0-13.04-5.66-18.54-13.2-18.54-15.72,0-22.63,23.73-22.63,39.92Z"/>
    <path class="st3" d="M272.5,513.37c2.36-11.79,5.97-23.26,13.52-31.59,7.23-8.17,16.5-12.42,22.79-12.42,5.5,0,10.06,3.14,10.06,6.44,0,2.36-2.67,6.29-4.71,7.86-1.26.94-2.51,1.1-3.61,0-3.62-3.93-7.54-5.97-10.84-5.97-5.97,0-10.22,6.6-15.09,35.68h17.76l-2.99,5.66c-2.67.16-11.47.79-15.72.79-2.99,17.29-4.71,27.35-8.17,45.89-5.34,27.82-11.16,38.66-19.8,47.62-6.92,7.54-14.46,10.37-18.23,10.37-5.82,0-10.06-2.99-10.06-6.92,0-2.67,2.2-6.76,4.87-8.64,1.1-.79,2.36-.79,2.99,0,3.14,2.67,6.29,5.34,10.22,5.34,8.96,0,11.63-11,16.97-42.28,3.77-21.37,6.29-35.83,8.8-51.39h-13.36l.16-1.89,4.4-4.56h10.06Z"/>
    <path class="st3" d="M416.46,556.28c-.94,4.87-5.66,21.22-7.23,26.09h-73.08v-4.4c14.3-1.42,15.56-2.2,15.56-15.56v-62.39c0-13.36-1.57-14.15-14.15-15.4v-4.4h42.12v4.4c-12.57,1.26-14.3,1.89-14.3,15.4v63.97c0,9.59,1.26,11.79,10.22,11.95.16,0,11.47.16,12.42.16,8.02,0,10.37-.94,13.99-4.87,3.93-4.09,7.23-10.37,9.59-16.19l4.87,1.26Z"/>
    <path class="st3" d="M481.68,478.01c26.88,0,50.92,20.59,50.92,51.87,0,33.79-22.95,54.85-51.86,54.85s-52.18-22.95-52.18-52.49,19.96-54.22,53.12-54.22ZM478.54,483.83c-17.6,0-33.63,14.77-33.63,44.16s16.03,50.76,38.35,50.76c19.02,0,33.32-14.14,33.32-44.48,0-33-17.45-50.45-38.03-50.45Z"/>
    <path class="st3" d="M656.45,484.61c-10.06,1.1-13.36,2.67-13.83,9.9-.16,5.03-.47,11.63-.47,26.25v63.02h-5.97l-67.27-82.2v39.29c0,14.14.47,21.22.79,25.77.31,8.02,4.24,10.37,15.56,11.32v4.4h-38.19v-4.4c9.74-.79,13.52-3.14,14.15-10.84.47-5.03.79-12.1.79-26.4v-40.08c0-4.4-.31-6.92-3.14-10.37-2.99-3.93-6.29-4.87-13.99-5.66v-4.4h23.57l66.64,79.05v-38.5c0-14.62-.31-21.38-.79-26.09-.47-7.07-4.09-9.27-16.66-10.06v-4.4h38.82v4.4Z"/>
    <path class="st3" d="M712.71,480.21c22.16,0,36.15,4.4,45.89,13.67,7.7,7.54,13.36,18.55,13.36,33.63,0,18.39-7.54,33.32-19.65,42.43-11.94,8.96-27.19,12.42-46.52,12.42h-36.78v-4.4c13.52-1.26,14.15-2.36,14.15-15.25v-62.71c0-13.52-1.89-14.15-14.15-15.4v-4.4h43.69ZM696.84,561.47c0,11.79,5.03,15.09,16.82,15.09,28.29,0,42.75-19.33,42.75-46.83,0-17.13-5.82-30.18-18.23-37.72-7.23-4.56-16.35-6.29-26.88-6.29-7.07,0-10.84.94-12.42,2.2-1.41.94-2.04,2.67-2.04,8.8v64.75Z"/>
    <path class="st3" d="M842.53,478.01c26.88,0,50.92,20.59,50.92,51.87,0,33.79-22.95,54.85-51.86,54.85s-52.18-22.95-52.18-52.49,19.96-54.22,53.12-54.22ZM839.39,483.83c-17.6,0-33.63,14.77-33.63,44.16s16.03,50.76,38.35,50.76c19.02,0,33.32-14.14,33.32-44.48,0-33-17.45-50.45-38.03-50.45Z"/>
    <path class="st3" d="M1017.3,484.61c-10.06,1.1-13.36,2.67-13.83,9.9-.16,5.03-.47,11.63-.47,26.25v63.02h-5.97l-67.27-82.2v39.29c0,14.14.47,21.22.79,25.77.31,8.02,4.24,10.37,15.56,11.32v4.4h-38.19v-4.4c9.74-.79,13.52-3.14,14.15-10.84.47-5.03.79-12.1.79-26.4v-40.08c0-4.4-.31-6.92-3.14-10.37-2.99-3.93-6.29-4.87-13.99-5.66v-4.4h23.57l66.64,79.05v-38.5c0-14.62-.31-21.38-.79-26.09-.47-7.07-4.09-9.27-16.66-10.06v-4.4h38.82v4.4Z"/>
  </g>
  <g>
    <polygon class="st2" points="499.59 110.55 628.31 412.04 752.36 359.61 726.11 296.62 892.67 322.01 761.83 16.72 639.54 65.17 657.94 126.59 499.59 110.55"/>
    <polygon class="st8" points="433.54 79.25 311.37 79.25 140.04 79.25 17.87 79.25 165.59 409.68 226.27 272.13 287.76 409.68 433.54 79.25"/>
    <polygon class="st1" points="314.37 409.68 460.15 79.25 607.87 409.68 314.37 409.68"/>
    <path class="st9" d="M903.88,409.68c86.95,0,157.44-70.49,157.44-157.44s-70.49-157.44-157.44-157.44h-85.72v314.88h85.72Z"/>
    <polygon class="st8" points="1032.94 95.77 1268.13 95.77 1268.13 206.56 1150.53 206.56 1150.53 224.05 1235.08 233.77 1235.08 290.14 1150.53 290.14 1150.53 311.52 1268.13 325.13 1268.13 408.71 1032.94 408.71 1032.94 95.77"/>
    <polygon class="st7" points="818.17 310.65 892.67 322.01 818.17 148.16 818.17 310.65"/>
    <path class="st1" d="M1286.09,94.66v315.16h217.69l-57.88-85.52-3.59-5.16c47.07-14.29,81.34-58.02,81.34-109.77,0-63.35-51.36-114.71-114.71-114.71h-122.85Z"/>
    <polygon class="st9" points="1479.63 95.77 1479.63 408.71 1724.54 408.71 1724.54 331.33 1613.74 323.18 1613.74 95.77 1479.63 95.77"/>
    <g>
      <path class="st6" d="M1479.63,299.68c26.79-20.99,44.02-53.63,44.02-90.31s-17.23-69.31-44.02-90.31v180.61Z"/>
      <polygon class="st6" points="1479.63 374.13 1479.63 408.71 1503.03 408.71 1479.63 374.13"/>
    </g>
    <polygon class="st2" points="1683.03 408.71 1828.81 78.28 1976.53 408.71 1683.03 408.71"/>
    <polygon class="st0" points="1717.4 330.8 1683.03 408.71 1724.54 408.71 1724.54 331.33 1717.4 330.8"/>
    <polygon class="st8" points="1868.25 110.55 1996.97 412.04 2121.02 359.61 2094.76 296.62 2261.33 322.01 2130.49 16.72 2008.2 65.17 2026.6 126.59 1868.25 110.55"/>
    <path class="st1" d="M2272.54,409.68c86.95,0,157.44-70.49,157.44-157.44s-70.49-157.44-157.44-157.44h-85.72v314.88h85.72Z"/>
    <polygon class="st4" points="2186.82 310.65 2261.33 322.01 2186.82 148.16 2186.82 310.65"/>
    <path class="st5" d="M1032.94,342.43c17.88-25.54,28.39-56.64,28.39-90.19s-10.5-64.64-28.39-90.19v180.38Z"/>
    <g>
      <path class="st1" d="M2417.33,66.25h51.51v13.54h-17.28v41.3h-16.94v-41.3h-17.28v-13.54Z"/>
      <path class="st1" d="M2476.32,66.25h22.28l8.59,33.37,8.53-33.37h22.27v54.84h-13.88v-41.82l-10.69,41.82h-12.56l-10.67-41.82v41.82h-13.88v-54.84Z"/>
    </g>
  </g>
</svg>