<?xml version="1.0" encoding="UTF-8"?>
<svg id="Layer_1" xmlns="http://www.w3.org/2000/svg" version="1.1" viewBox="0 0 2560 439.29">
  <!-- Generator: Adobe Illustrator 30.3.0, SVG Export Plug-In . SVG Version: 2.1.3 Build 157)  -->
  <defs>
    <style>
      .st0 {
        fill: #42afe4;
      }

      .st1 {
        fill: #258737;
      }

      .st2 {
        fill: #2eb3a4;
      }

      .st3 {
        fill: #d73316;
      }

      .st4 {
        fill: #004a73;
      }

      .st5 {
        fill: #248336;
      }

      .st6 {
        fill: #179039;
      }

      .st7 {
        fill: #ec686a;
      }

      .st8 {
        fill: #fdc424;
      }
    </style>
  </defs>
  <polygon class="st0" points="499.59 110.55 628.31 412.04 752.36 359.61 726.11 296.62 892.67 322.01 761.83 16.72 639.54 65.17 657.94 126.59 499.59 110.55"/>
  <polygon class="st7" points="433.54 79.25 311.37 79.25 140.04 79.25 17.87 79.25 165.59 409.68 226.27 272.13 287.76 409.68 433.54 79.25"/>
  <polygon class="st2" points="314.37 409.68 460.15 79.25 607.87 409.68 314.37 409.68"/>
  <path class="st8" d="M903.88,409.68c86.95,0,157.44-70.49,157.44-157.44s-70.49-157.44-157.44-157.44h-85.72v314.88h85.72Z"/>
  <polygon class="st7" points="1032.94 95.77 1268.13 95.77 1268.13 206.56 1150.53 206.56 1150.53 224.05 1235.08 233.77 1235.08 290.14 1150.53 290.14 1150.53 311.52 1268.13 325.13 1268.13 408.71 1032.94 408.71 1032.94 95.77"/>
  <polygon class="st6" points="818.17 310.65 892.67 322.01 818.17 148.16 818.17 310.65"/>
  <path class="st2" d="M1286.09,94.66v315.16h217.69l-57.88-85.52-3.59-5.16c47.07-14.29,81.34-58.02,81.34-109.77,0-63.35-51.36-114.71-114.71-114.71h-122.85Z"/>
  <polygon class="st8" points="1479.63 95.77 1479.63 408.71 1724.54 408.71 1724.54 331.33 1613.74 323.18 1613.74 95.77 1479.63 95.77"/>
  <g>
    <path class="st5" d="M1479.63,299.68c26.79-20.99,44.02-53.63,44.02-90.31s-17.23-69.31-44.02-90.31v180.61h0Z"/>
    <polygon class="st5" points="1479.63 374.13 1479.63 408.71 1503.03 408.71 1479.63 374.13"/>
  </g>
  <polygon class="st0" points="1683.03 408.71 1828.81 78.28 1976.53 408.71 1683.03 408.71"/>
  <polygon class="st1" points="1717.4 330.8 1683.03 408.71 1724.54 408.71 1724.54 331.33 1717.4 330.8"/>
  <polygon class="st7" points="1868.25 110.55 1996.97 412.04 2121.02 359.61 2094.76 296.62 2261.33 322.01 2130.49 16.72 2008.2 65.17 2026.6 126.59 1868.25 110.55"/>
  <path class="st2" d="M2272.54,409.68c86.95,0,157.44-70.49,157.44-157.44s-70.49-157.44-157.44-157.44h-85.72v314.88h85.72Z"/>
  <polygon class="st4" points="2186.82 310.65 2261.33 322.01 2186.82 148.16 2186.82 310.65"/>
  <path class="st3" d="M1032.94,342.43c17.88-25.54,28.39-56.64,28.39-90.19s-10.5-64.64-28.39-90.19v180.38Z"/>
  <g>
    <path class="st2" d="M2417.33,66.25h51.51v13.54h-17.28v41.3h-16.94v-41.3h-17.28v-13.54h-.01Z"/>
    <path class="st2" d="M2476.32,66.25h22.28l8.59,33.37,8.53-33.37h22.27v54.84h-13.88v-41.82l-10.69,41.82h-12.56l-10.67-41.82v41.82h-13.88v-54.84h0Z"/>
  </g>
</svg>